HIERARCHY
ROOT joint_Root
{
	OFFSET 0.0 0.0 0.0
	CHANNELS 6 Xposition Yposition Zposition Zrotation Xrotation Yrotation 
	JOINT Hips
	{
		OFFSET -17.1583 93.1646 452.98
		CHANNELS 6 Xposition Yposition Zposition Zrotation Xrotation Yrotation 
		JOINT Spine
		{
			OFFSET 15.7357 0.0 0.0
			CHANNELS 6 Xposition Yposition Zposition Zrotation Xrotation Yrotation 
			JOINT Chest
			{
				OFFSET 8.98455 -0.406207 0.0
				CHANNELS 6 Xposition Yposition Zposition Zrotation Xrotation Yrotation 
				JOINT Neck
				{
					OFFSET 16.3773 0.0 0.0
					CHANNELS 6 Xposition Yposition Zposition Zrotation Xrotation Yrotation 
					JOINT Head
					{
						OFFSET 6.45672 0.0 0.0
						CHANNELS 6 Xposition Yposition Zposition Zrotation Xrotation Yrotation 
						End Site
						{
							OFFSET 0.0 0.0 0.0
						}
					}
				}
				JOINT Shoulder_L
				{
					OFFSET 12.9942 -0.242716 4.98039
					CHANNELS 6 Xposition Yposition Zposition Zrotation Xrotation Yrotation 
					JOINT UpperArm_L
					{
						OFFSET 5.34809 0.0 0.0
						CHANNELS 6 Xposition Yposition Zposition Zrotation Xrotation Yrotation 
						JOINT LowerArm_L
						{
							OFFSET 24.3286 1.87007e-05 0.0
							CHANNELS 6 Xposition Yposition Zposition Zrotation Xrotation Yrotation 
							JOINT Hand_L
							{
								OFFSET 22.2916 0.0 0.0
								CHANNELS 6 Xposition Yposition Zposition Zrotation Xrotation Yrotation 
								End Site
								{
									OFFSET 0.0 0.0 0.0
								}
							}
						}
					}
				}
				JOINT Shoulder_R
				{
					OFFSET 12.9945 -0.242716 -4.98039
					CHANNELS 6 Xposition Yposition Zposition Zrotation Xrotation Yrotation 
					JOINT UpperArm_R
					{
						OFFSET -5.34813 0.0 0.0
						CHANNELS 6 Xposition Yposition Zposition Zrotation Xrotation Yrotation 
						JOINT LowerArm_R
						{
							OFFSET -24.3289 0.000322201 0.0
							CHANNELS 6 Xposition Yposition Zposition Zrotation Xrotation Yrotation 
							JOINT Hand_R
							{
								OFFSET -22.2915 -0.000108084 0.0
								CHANNELS 6 Xposition Yposition Zposition Zrotation Xrotation Yrotation 
								End Site
								{
									OFFSET 0.0 0.0 0.0
								}
							}
						}
					}
				}
			}
		}
		JOINT UpperLeg_L
		{
			OFFSET -2.19248 -6.46944 0.0
			CHANNELS 6 Xposition Yposition Zposition Zrotation Xrotation Yrotation 
			JOINT LowerLeg_L
			{
				OFFSET 39.0811 0.0 -1.23785e-05
				CHANNELS 6 Xposition Yposition Zposition Zrotation Xrotation Yrotation 
				JOINT Foot_L
				{
					OFFSET 40.9854 0.0 -1.26872e-05
					CHANNELS 6 Xposition Yposition Zposition Zrotation Xrotation Yrotation 
					JOINT Toes_L
					{
						OFFSET 11.7543 0.0 0.0
						CHANNELS 6 Xposition Yposition Zposition Zrotation Xrotation Yrotation 
						End Site
						{
							OFFSET 0.0 0.0 0.0
						}
					}
				}
			}
		}
		JOINT UpperLeg_R
		{
			OFFSET -2.19251 6.46944 0.0
			CHANNELS 6 Xposition Yposition Zposition Zrotation Xrotation Yrotation 
			JOINT LowerLeg_R
			{
				OFFSET -39.0811 -0.00228153 -0.0401928
				CHANNELS 6 Xposition Yposition Zposition Zrotation Xrotation Yrotation 
				JOINT Foot_R
				{
					OFFSET -40.9854 0.0 0.0
					CHANNELS 6 Xposition Yposition Zposition Zrotation Xrotation Yrotation 
					JOINT Toes_R
					{
						OFFSET -11.7543 0.0 0.0
						CHANNELS 6 Xposition Yposition Zposition Zrotation Xrotation Yrotation 
						End Site
						{
							OFFSET 0.0 0.0 0.0
						}
					}
				}
			}
		}
	}
}
MOTION
Frames:	8
Frame Time:	0.0333333
0.000000 0.000000 0.000000 0.000000 0.000000 -0.000000 -4.872070 92.767000 0.889000 86.689800 2.599820 4.278530 15.735700 0.000005 -0.000001 72.274300 85.506800 -69.261000 8.984550 -0.406207 -0.000000 0.879164 -2.915920 6.045260 16.377300 -0.000001 -0.000001 4.986500 1.912120 2.076410 6.456720 -0.000001 -0.000000 -13.680000 2.879420 3.590350 12.994200 -0.242716 4.980390 -93.463000 10.175800 -71.092400 5.348090 -0.000007 -0.000001 -72.826500 27.733800 -1.352430 24.328600 0.000019 0.000005 12.000700 27.481700 -24.732600 22.291600 -0.000001 0.000005 -2.716370 5.077900 5.615730 12.994500 -0.242716 -4.980390 87.780900 6.226780 -70.340000 -5.348130 -0.000001 -0.000004 -65.308000 34.331100 -8.110320 -24.328900 0.000322 -0.000009 1.744680 4.964650 -19.399300 -22.291500 -0.000108 -0.000004 -14.426100 5.057330 6.074320 -2.192480 -6.469440 -0.000000 -167.903000 -7.683640 2.536350 39.081100 -0.000007 -0.000012 -0.004192 0.015090 15.523900 40.985400 -0.000006 -0.000013 -2.983230 19.623300 -68.819100 11.754300 -0.000000 0.000003 -0.001834 0.194251 -8.696060 -2.192510 6.469440 -0.000001 -179.169000 5.464180 -176.008000 -39.081100 -0.002282 -0.040193 0.039513 -0.144462 14.060700 -40.985400 0.000008 0.000006 -1.746170 7.735830 -69.532800 -11.754300 -0.000006 -0.000006 -0.008645 0.260888 -5.976820
0.000000 0.000000 0.000000 0.000000 0.000000 -0.000000 -4.756290 92.754800 0.888507 86.690000 2.731790 4.400120 15.735700 0.000005 -0.000001 71.598500 85.377200 -68.629500 8.984550 -0.406207 -0.000000 1.095810 -3.090050 5.963860 16.377300 -0.000001 -0.000001 4.745350 1.983190 2.068450 6.456720 -0.000001 -0.000000 -14.138100 3.143290 3.507980 12.994200 -0.242716 4.980390 -93.485400 10.220000 -71.053900 5.348090 -0.000007 -0.000001 -72.846900 26.673900 -1.174790 24.328600 0.000019 0.000005 12.134000 26.891800 -25.423800 22.291600 -0.000001 0.000005 -2.873070 5.084540 5.465760 12.994500 -0.242716 -4.980390 87.619100 6.566840 -70.020600 -5.348130 -0.000001 -0.000004 -63.264100 34.753100 -8.610310 -24.328900 0.000322 -0.000009 3.162760 7.311270 -23.473100 -22.291500 -0.000108 -0.000004 -19.143600 5.030750 6.664100 -2.192480 -6.469440 -0.000000 -168.012000 -7.423090 2.477340 39.081100 -0.000007 -0.000012 -0.002738 0.009676 15.795800 40.985400 -0.000006 -0.000013 -2.865400 19.483000 -68.899400 11.754300 -0.000000 0.000003 -0.001898 0.195058 -8.663220 -2.192510 6.469440 -0.000001 -179.323000 5.808940 -175.884000 -39.081100 -0.002282 -0.040193 0.039008 -0.142014 14.101700 -40.985400 0.000008 0.000006 -1.773700 7.984960 -69.533100 -11.754300 -0.000006 -0.000006 -0.008596 0.260497 -5.992830
0.000000 0.000000 0.000000 0.000000 0.000000 -0.000000 -4.619650 92.776800 0.861698 86.723500 3.026180 4.506210 15.735700 0.000005 -0.000001 69.834400 85.207600 -66.965100 8.984550 -0.406207 -0.000000 1.327110 -3.463730 5.775320 16.377300 -0.000001 -0.000001 4.289380 2.142360 1.846110 6.456720 -0.000001 -0.000000 -14.668100 3.554510 3.510650 12.994200 -0.242716 4.980390 -93.545000 10.423000 -71.097200 5.348090 -0.000007 -0.000001 -72.567800 25.281800 -0.652881 24.328600 0.000019 0.000005 12.263200 25.979100 -26.391100 22.291600 -0.000001 0.000005 -2.693980 5.099560 5.124210 12.994500 -0.242716 -4.980390 87.417900 6.914180 -69.463500 -5.348130 -0.000001 -0.000004 -59.886100 34.700700 -8.532830 -24.328900 0.000322 -0.000009 5.335670 8.254750 -33.047000 -22.291500 -0.000108 -0.000004 -27.725000 4.960040 8.169330 -2.192480 -6.469440 -0.000000 -168.102000 -7.502800 2.507670 39.081100 -0.000007 -0.000012 -0.000852 0.003015 15.781300 40.985400 -0.000006 -0.000013 -2.729530 19.817300 -68.880600 11.754300 -0.000000 0.000003 -0.001851 0.194461 -8.687490 -2.192510 6.469440 -0.000001 -179.575000 6.280970 -175.684000 -39.081100 -0.002282 -0.040193 0.031976 -0.115488 13.929900 -40.985400 0.000008 0.000006 -2.208390 8.278900 -69.340700 -11.754300 -0.000006 -0.000006 -0.008697 0.261295 -5.960220
0.000000 0.000000 0.000000 0.000000 0.000000 -0.000000 -4.501950 92.795700 0.805917 86.782500 3.495650 4.380330 15.735700 0.000005 -0.000001 67.516300 85.076200 -64.878600 8.984550 -0.406207 -0.000000 1.432110 -3.909730 5.321430 16.377300 -0.000001 -0.000001 3.604540 2.190710 1.511250 6.456720 -0.000001 -0.000000 -15.475400 3.985850 3.217570 12.994200 -0.242716 4.980390 -93.666600 10.839900 -71.183900 5.348090 -0.000007 -0.000001 -71.461000 23.776600 -0.153912 24.328600 0.000019 0.000005 12.261100 25.099500 -27.127100 22.291600 -0.000001 0.000005 -2.837450 5.139830 4.185590 12.994500 -0.242716 -4.980390 87.287400 7.007060 -68.774500 -5.348130 -0.000001 -0.000004 -55.502200 33.356800 -7.780640 -24.328900 0.000322 -0.000009 5.514950 5.021880 -47.832500 -22.291500 -0.000108 -0.000004 -36.375000 4.848200 10.412800 -2.192480 -6.469440 -0.000000 -168.231000 -7.624120 2.229660 39.081100 -0.000007 -0.000012 0.001312 -0.004641 15.787000 40.985400 -0.000006 -0.000013 -2.577570 20.354800 -68.768600 11.754300 -0.000000 0.000003 -0.001583 0.191002 -8.828140 -2.192510 6.469440 -0.000001 -179.795000 6.830930 -175.727000 -39.081100 -0.002282 -0.040193 0.028715 -0.103625 13.763500 -40.985400 0.000008 0.000006 -2.417090 8.462920 -69.170100 -11.754300 -0.000006 -0.000006 -0.008376 0.258738 -6.064670
0.000000 0.000000 0.000000 0.000000 0.000000 -0.000000 -4.389960 92.839000 0.773902 86.912700 3.790940 4.037000 15.735700 0.000005 -0.000001 66.075100 85.108000 -63.839000 8.984550 -0.406207 -0.000000 1.264810 -4.092760 4.515210 16.377300 -0.000001 -0.000001 2.710630 2.057460 0.872180 6.456720 -0.000001 -0.000000 -16.207200 4.301680 2.164930 12.994200 -0.242716 4.980390 -93.821900 11.267400 -71.124600 5.348090 -0.000007 -0.000001 -69.824500 21.657900 0.200872 24.328600 0.000019 0.000005 12.066300 24.908400 -26.910200 22.291600 -0.000001 0.000005 -2.633170 5.178350 3.256450 12.994500 -0.242716 -4.980390 87.258100 6.825430 -68.051600 -5.348130 -0.000001 -0.000004 -50.957200 28.608900 -6.272140 -24.328900 0.000322 -0.000009 1.534920 0.687936 -66.096800 -22.291500 -0.000108 -0.000004 -41.191500 4.726010 12.691800 -2.192480 -6.469440 -0.000000 -168.441000 -7.912760 1.969940 39.081100 -0.000007 -0.000012 0.003605 -0.013020 15.478700 40.985400 -0.000006 -0.000013 -2.506640 20.802400 -68.707700 11.754300 -0.000000 0.000003 -0.001784 0.193604 -8.722360 -2.192510 6.469440 -0.000001 179.995000 6.981970 -175.938000 -39.081100 -0.002282 -0.040193 0.024698 -0.089037 13.493600 -40.985400 0.000008 0.000006 -2.829210 8.441890 -68.964700 -11.754300 -0.000006 -0.000006 -0.008365 0.258651 -6.068230
0.000000 0.000000 0.000000 0.000000 0.000000 -0.000000 -4.342890 92.895400 0.705912 87.000800 3.913320 3.470240 15.735700 0.000005 -0.000001 65.136100 85.329000 -63.418000 8.984550 -0.406207 -0.000000 0.775699 -4.031380 3.461890 16.377300 -0.000001 -0.000001 1.767010 1.976660 -0.325707 6.456720 -0.000001 -0.000000 -16.631600 4.628870 0.032405 12.994200 -0.242716 4.980390 -93.942300 11.565000 -71.029400 5.348090 -0.000007 -0.000001 -68.052400 18.496200 0.695471 24.328600 0.000019 0.000005 11.811100 25.259300 -26.107200 22.291600 -0.000001 0.000005 -1.970320 5.157000 3.774040 12.994500 -0.242716 -4.980390 87.380400 6.349450 -67.524600 -5.348130 -0.000001 -0.000004 -45.723800 20.316900 -5.762050 -24.328900 0.000322 -0.000009 -6.103440 -0.615534 -84.195300 -22.291500 -0.000108 -0.000004 -41.604400 4.689400 13.347600 -2.192480 -6.469440 -0.000000 -168.620000 -8.195470 1.596480 39.081100 -0.000007 -0.000012 0.004955 -0.018529 14.974500 40.985400 -0.000006 -0.000013 -2.535990 21.085800 -68.454200 11.754300 -0.000000 0.000003 -0.001751 0.193186 -8.739350 -2.192510 6.469440 -0.000001 179.888000 7.197520 -176.365000 -39.081100 -0.002282 -0.040193 0.021120 -0.076364 13.111400 -40.985400 0.000008 0.000006 -3.143330 8.566080 -68.657600 -11.754300 -0.000006 -0.000006 -0.008488 0.259637 -6.027950
0.000000 0.000000 0.000000 0.000000 0.000000 -0.000000 -4.329020 92.961100 0.653718 87.092500 3.782570 2.742010 15.735700 0.000005 -0.000001 64.798500 85.721600 -63.752200 8.984550 -0.406207 -0.000000 0.012405 -3.713360 2.092280 16.377300 -0.000001 -0.000001 0.609334 2.075780 -1.898280 6.456720 -0.000001 -0.000000 -16.352100 5.117760 -2.879010 12.994200 -0.242716 4.980390 -94.004600 11.686700 -70.934400 5.348090 -0.000007 -0.000001 -66.086700 14.730300 1.237380 24.328600 0.000019 0.000005 11.292200 25.814300 -24.633700 22.291600 -0.000001 0.000005 -0.562522 5.105950 4.974700 12.994500 -0.242716 -4.980390 87.736000 5.456040 -67.423000 -5.348130 -0.000001 -0.000004 -40.518400 7.267500 -6.973860 -24.328900 0.000322 -0.000009 -14.545700 2.108670 -98.051000 -22.291500 -0.000108 -0.000004 -39.288300 4.707640 13.022200 -2.192480 -6.469440 -0.000000 -168.829000 -8.378070 1.235580 39.081100 -0.000007 -0.000012 0.006669 -0.026224 14.270000 40.985400 -0.000006 -0.000013 -2.680540 20.987000 -68.222900 11.754300 -0.000000 0.000003 -0.001721 0.192796 -8.755190 -2.192510 6.469440 -0.000001 179.823000 7.214530 -176.941000 -39.081100 -0.002282 -0.040193 0.017886 -0.064751 12.666000 -40.985400 0.000008 0.000006 -3.469390 8.791320 -68.292700 -11.754300 -0.000006 -0.000006 -0.008220 0.257490 -6.115670
0.000000 0.000000 0.000000 0.000000 0.000000 -0.000000 -4.326130 93.007100 0.659489 87.111900 3.519710 2.223780 15.735700 0.000005 -0.000001 66.058800 86.084500 -65.836600 8.984550 -0.406207 -0.000000 -0.602203 -3.193350 0.427529 16.377300 -0.000001 -0.000001 -0.671204 2.269270 -3.728680 6.456720 -0.000001 -0.000000 -15.946900 5.392440 -5.699400 12.994200 -0.242716 4.980390 -93.983300 11.502300 -70.750500 5.348090 -0.000007 -0.000001 -64.048200 10.695600 1.445920 24.328600 0.000019 0.000005 10.900000 27.058200 -22.944600 22.291600 -0.000001 0.000005 1.126710 5.047870 6.282190 12.994500 -0.242716 -4.980390 88.298900 4.168740 -67.777800 -5.348130 -0.000001 -0.000004 -36.785700 -10.679000 -9.765920 -24.328900 0.000322 -0.000009 -21.999800 6.051800 -104.621000 -22.291500 -0.000108 -0.000004 -34.693200 4.737540 12.478800 -2.192480 -6.469440 -0.000000 -168.966000 -8.294090 1.057560 39.081100 -0.000007 -0.000012 0.004463 -0.018271 13.727400 40.985400 -0.000006 -0.000013 -2.821240 20.536600 -68.070200 11.754300 -0.000000 0.000003 -0.001770 0.193434 -8.729260 -2.192510 6.469440 -0.000001 179.765000 7.386550 -177.300000 -39.081100 -0.002282 -0.040193 0.014173 -0.049761 12.287400 -40.985400 0.000008 0.000006 -3.819470 9.289700 -67.979600 -11.754300 -0.000006 -0.000006 -0.008463 0.259441 -6.035950
